<svg id="Capa_1" enable-background="new 0 0 512 512" height="512" viewBox="0 0 512 512" width="512" xmlns="http://www.w3.org/2000/svg"><g><g><path d="m229.984 379.837h52.033v104.065h-52.033z" fill="#453d81" transform="matrix(0 1 -1 0 687.87 175.87)"/><path d="m360.065 489.21v-14.55c0-3.902-2.205-7.469-5.695-9.214l-10.768-5.384c-2.861-1.43-6.016-2.175-9.214-2.175h-156.776c-3.199 0-6.353.745-9.214 2.175l-10.768 5.384c-3.49 1.745-5.695 5.312-5.695 9.214v14.551c0 5.69 4.612 10.302 10.302 10.302h187.526c5.69-.001 10.302-4.613 10.302-10.303z" fill="#5e54ac"/><path d="m334.388 457.886h-24.274l9.308 4.654c7.051 3.526 11.505 10.732 11.505 18.616v18.356h18.836c5.69 0 10.302-4.612 10.302-10.302v-14.55c0-3.902-2.205-7.469-5.695-9.214l-10.768-5.384c-2.861-1.431-6.015-2.176-9.214-2.176z" fill="#524798"/></g><g><path d="m501.698 405.854h-491.396c-5.69 0-10.302-4.613-10.302-10.302v-372.762c0-5.69 4.612-10.302 10.302-10.302h491.396c5.69 0 10.302 4.612 10.302 10.302v372.762c0 5.689-4.612 10.302-10.302 10.302z" fill="#5e54ac"/><path d="m501.698 12.488h-12.592v393.366h12.592c5.69 0 10.302-4.612 10.302-10.302v-372.762c0-5.69-4.612-10.302-10.302-10.302z" fill="#524798"/><path d="m35.382 328.95v-270.778c0-5.69 4.612-10.302 10.302-10.302h420.632c5.69 0 10.302 4.612 10.302 10.302v270.778c0 5.69-4.612 10.302-10.302 10.302h-420.632c-5.69 0-10.302-4.612-10.302-10.302z" fill="#9dc6fb"/><g><path d="m417.198 47.87c9.491 25.963 14.672 54.002 14.672 83.252 0 88.416-47.331 165.768-118.03 208.13h152.476c5.69 0 10.302-4.612 10.302-10.302v-270.778c0-5.69-4.612-10.302-10.302-10.302z" fill="#80b4fb"/></g></g><g><g><path d="m468.892 380.279h-20.813c-4.268 0-7.726-3.459-7.726-7.726s3.459-7.726 7.726-7.726h20.813c4.268 0 7.726 3.459 7.726 7.726s-3.459 7.726-7.726 7.726z" fill="#df75a5"/></g><g><path d="m414.778 380.279h-20.813c-4.268 0-7.726-3.459-7.726-7.726s3.459-7.726 7.726-7.726h20.813c4.268 0 7.726 3.459 7.726 7.726s-3.459 7.726-7.726 7.726z" fill="#ffe07d"/></g><g><path d="m360.664 380.279h-20.813c-4.268 0-7.726-3.459-7.726-7.726s3.459-7.726 7.726-7.726h20.813c4.268 0 7.726 3.459 7.726 7.726.001 4.267-3.458 7.726-7.726 7.726z" fill="#95d6a4"/></g></g></g></svg>