<svg height="512pt" viewBox="0 -43 512 512" width="512pt" xmlns="http://www.w3.org/2000/svg">
  <path style="fill:#709fb0;" d="m128 96c0 17.671875-14.328125 32-32 32s-32-14.328125-32-32 14.328125-32 32-32 32 14.328125 32 32zm0 0"/>
  <path style="fill:#709fb0;" d="m458.667969 138.667969v129.128906c0 46.441406-37.78125 84.203125-84.203125 84.203125h-214.464844v21.332031c0 29.398438 23.9375 53.335938 53.332031 53.335938h245.335938c29.394531 0 53.332031-23.9375 53.332031-53.335938v-181.332031c0-29.398438-23.9375-53.332031-53.332031-53.332031zm0 0"/>
  <path style="fill:#709fb0;" d="m374.464844 0h-322.261719c-28.777344 0-52.203125 23.425781-52.203125 52.203125v215.574219c0 3.6875.40625 7.292968 1.152344 10.773437-1.2382815 5.226563-.105469 10.898438 3.96875 14.996094.894531.894531 2.027344 1.386719 3.070312 2.027344 9.257813 14.632812 25.472656 24.425781 44.011719 24.425781h322.238281c28.800782 0 52.226563-23.425781 52.226563-52.203125v-215.59375c0-28.777344-23.425781-52.203125-52.203125-52.203125zm-322.261719 42.667969h322.238281c5.269532 0 9.558594 4.285156 9.558594 9.535156v131.242187l-67.390625-78.613281c-7.148437-8.40625-17.023437-12.480469-28.609375-13.121093-11.050781.066406-21.417969 4.972656-28.5 13.460937l-79.234375 95.125-25.8125-25.789063c-14.589844-14.59375-38.335937-14.59375-52.90625 0l-58.878906 58.859376v-181.164063c0-5.25 4.285156-9.535156 9.535156-9.535156zm0 0"/>
</svg>
